<svg xmlns="http://www.w3.org/2000/svg" width="1920" height="1080" viewBox="0 0 1920 1080" role="img" aria-labelledby="t d"><title id="t">Connected application map</title><desc id="d">Approved account, onboarding, global, case and professional-support routes.</desc><defs><linearGradient id="b" x2="1" y2="1"><stop stop-color="#eef4ff"/><stop offset="1" stop-color="#f8f5ff"/></linearGradient><linearGradient id="p" x2="1" y2="1"><stop stop-color="#4d70f7"/><stop offset="1" stop-color="#8267ef"/></linearGradient><filter id="s"><feDropShadow dy="12" stdDeviation="16" flood-color="#24345b" flood-opacity=".13"/></filter></defs><rect width="1920" height="1080" fill="url(#b)"/><g font-family="Segoe UI,Arial" fill="#172033"><text x="78" y="86" font-size="42" font-weight="700">Connected application map</text><text x="78" y="126" font-size="20" fill="#68748a">Approved end-to-end structure · synthetic review fixture</text><g filter="url(#s)" fill="#fff" stroke="#dce4f2"><rect x="90" y="210" width="280" height="120" rx="24"/><rect x="430" y="210" width="280" height="120" rx="24"/><rect x="770" y="210" width="280" height="120" rx="24"/><rect x="1110" y="210" width="280" height="120" rx="24"/><rect x="1450" y="210" width="380" height="120" rx="24"/></g><g font-size="24" font-weight="700"><text x="122" y="270">Account</text><text x="462" y="270">Onboarding</text><text x="802" y="270">Global Home</text><text x="1142" y="270">Case C-03</text><text x="1482" y="270">Professional help</text></g><g stroke="#7281a1" stroke-width="5"><path d="M370 270h60"/><path d="M710 270h60"/><path d="M1050 270h60"/><path d="M1390 270h60"/></g><text x="90" y="470" font-size="22" font-weight="700">CASE LENSES</text><g filter="url(#s)" fill="#fff" stroke="#dce4f2"><rect x="90" y="520" width="220" height="120" rx="24"/><rect x="340" y="520" width="220" height="120" rx="24"/><rect x="590" y="520" width="220" height="120" rx="24"/><rect x="840" y="520" width="220" height="120" rx="24"/><rect x="1090" y="520" width="220" height="120" rx="24"/><rect x="1340" y="520" width="220" height="120" rx="24"/><rect x="1590" y="520" width="220" height="120" rx="24"/></g><g font-size="22" font-weight="700"><text x="125" y="590">Brief</text><text x="375" y="590">Space</text><text x="625" y="590">Evidence</text><text x="875" y="590">Research</text><text x="1125" y="590">Work</text><text x="1375" y="590">Room</text><text x="1625" y="590">Reports</text></g><rect x="450" y="770" width="430" height="140" rx="28" fill="#f5f1ff" stroke="#d9ceff"/><rect x="1040" y="770" width="430" height="140" rx="28" fill="#eff9f6" stroke="#c9ece3"/><text x="485" y="830" font-size="25" font-weight="700">Notifications</text><text x="485" y="870" font-size="17" fill="#68748a">exact-object return</text><text x="1075" y="830" font-size="25" font-weight="700">Settings</text><text x="1075" y="870" font-size="17" fill="#68748a">preferences and receipts</text></g></svg>
