<svg xmlns="http://www.w3.org/2000/svg" width="1920" height="1080" viewBox="0 0 1920 1080" role="img" aria-labelledby="t d"><title id="t">Marketplace to selective sharing</title><desc id="d">Premium discovery, verified profile, booking, payment and recipient-specific access.</desc><defs><linearGradient id="b" x2="1" y2="1"><stop stop-color="#eef4ff"/><stop offset="1" stop-color="#f8f5ff"/></linearGradient><linearGradient id="p" x2="1" y2="1"><stop stop-color="#4d70f7"/><stop offset="1" stop-color="#8267ef"/></linearGradient><filter id="s"><feDropShadow dy="10" stdDeviation="14" flood-color="#24345b" flood-opacity=".13"/></filter></defs><rect width="1920" height="1080" fill="url(#b)"/><g font-family="Segoe UI,Arial"><text x="80" y="86" fill="#172033" font-size="42" font-weight="700">Marketplace to selective sharing</text><text x="80" y="126" fill="#68748a" font-size="20">Premium professional support without implicit case access</text><g filter="url(#s)" fill="#fff" stroke="#dce4f2"><rect x="90" y="230" width="520" height="580" rx="28"/><rect x="700" y="230" width="520" height="580" rx="28"/><rect x="1310" y="230" width="520" height="580" rx="28"/></g><g fill="#172033" font-size="27" font-weight="700"><text x="135" y="295">Discover</text><text x="745" y="295">Verified lawyer profile</text><text x="1355" y="295">Booking B-07</text></g><g fill="#68748a" font-size="18"><text x="135" y="335">filters · ranking disclosure · Saved</text><text x="745" y="335">license scope · pricing · reviews</text><text x="1355" y="335">slot · payment · selective sharing</text></g><g fill="#e5eaf3"><circle cx="185" cy="445" r="54" fill="#e4e9ff"/><rect x="270" y="410" width="260" height="18" rx="9"/><rect x="270" y="455" width="200" height="14" rx="7"/><circle cx="795" cy="445" r="54" fill="#e4e9ff"/><rect x="880" y="410" width="260" height="18" rx="9"/><rect x="880" y="455" width="200" height="14" rx="7"/><circle cx="1405" cy="445" r="54" fill="#e4e9ff"/><rect x="1490" y="410" width="260" height="18" rx="9"/><rect x="1490" y="455" width="200" height="14" rx="7"/></g><g fill="url(#p)"><rect x="135" y="675" width="210" height="58" rx="18"/><rect x="745" y="675" width="210" height="58" rx="18"/><rect x="1355" y="675" width="210" height="58" rx="18"/></g><rect x="500" y="875" width="920" height="105" rx="27" fill="#fff5f6" stroke="#ffd2d9"/><text x="545" y="925" fill="#172033" font-size="26" font-weight="700">Payment does not grant case access</text><text x="545" y="960" fill="#68748a" font-size="17">recipient · selected objects · permission · expiry · download policy · preview</text></g></svg>
