<svg xmlns="http://www.w3.org/2000/svg" width="1920" height="1080" viewBox="0 0 1920 1080" role="img" aria-labelledby="t d"><title id="t">Space board system</title><desc id="d">Source-backed cards, typed connectors, contrary material and an unapplied AI proposal.</desc><defs><linearGradient id="b" x2="1" y2="1"><stop stop-color="#eef4ff"/><stop offset="1" stop-color="#f8f5ff"/></linearGradient><filter id="s"><feDropShadow dy="10" stdDeviation="14" flood-color="#24345b" flood-opacity=".13"/></filter></defs><rect width="1920" height="1080" fill="url(#b)"/><g font-family="Segoe UI,Arial"><text x="80" y="86" fill="#172033" font-size="42" font-weight="700">Space board system</text><text x="80" y="126" fill="#68748a" font-size="20">2D organization with source identity and reviewable meaning</text><rect x="70" y="170" width="1780" height="820" rx="38" fill="#fbfcff" stroke="#dce4f2"/><g filter="url(#s)" stroke-width="2"><rect x="150" y="260" width="330" height="150" rx="24" fill="#fff" stroke="#dce4f2"/><rect x="190" y="625" width="330" height="150" rx="24" fill="#eff9f6" stroke="#c7ebe1"/><rect x="1215" y="245" width="330" height="150" rx="24" fill="#fff" stroke="#dce4f2"/><rect x="1245" y="625" width="350" height="150" rx="24" fill="#fff3f5" stroke="#ffcbd4"/><rect x="715" y="350" width="480" height="230" rx="28" fill="#f8faff" stroke="#bac9ff"/><rect x="795" y="735" width="410" height="150" rx="28" fill="#f5f1ff" stroke="#d7cbff"/></g><g fill="#172033" font-size="23" font-weight="700"><text x="180" y="315">E-01 Agreement</text><text x="220" y="680">E-02 Email</text><text x="1245" y="300">E-03 Invoice</text><text x="1275" y="680">E-04 Contrary</text><text x="755" y="415">Reviewed understanding</text><text x="835" y="795">AI ghost · NOT APPLIED</text></g><g fill="#68748a" font-size="17"><text x="180" y="355">supports</text><text x="220" y="720">delivery acknowledged</text><text x="1245" y="340">amount and due date</text><text x="1275" y="720">timing unresolved</text><text x="755" y="460">sources, contrary material and unknowns</text><text x="835" y="838">review sources · destination · effect · recovery</text></g><g fill="none" stroke-width="6"><path d="M480 335C610 335 625 405 715 440" stroke="#4d70f7"/><path d="M520 700C650 670 640 525 715 490" stroke="#22a589"/><path d="M1215 325C1170 350 1180 405 1195 440" stroke="#e65d72"/><path d="M1245 700C1170 675 1160 545 1185 510" stroke="#e65d72"/><path d="M1070 580C1120 650 1070 710 1010 735" stroke="#8267ef" stroke-dasharray="14 12"/></g></g></svg>
